<svg viewBox="0 0 256 256" xmlns="http://www.w3.org/2000/svg"><g fill="#02C6D6"><path d="m141.84 68.77-5.66 17.38q-1.35-.09-2.73-.09c-.49 0-1 0-1.46 0l4.37-13.43a59.57 59.57 0 0 0 -13.59 2.46l-1.71-2.69-1.7 2.6s-.4.61-1 1.61c-12.06 4.54-27.22 14.19-39.52 34.63a210.79 210.79 0 0 0 -25 65.17h15.56c-.34 1.37-.66 2.7-1 4h-19.26l.35-2.3a212.42 212.42 0 0 1 26-68.93c23.23-38.6 56.5-40.56 62.94-40.56h.85z"/><path d="m142.34 91 .42.09zm28.54-39.78-28.88 35.65a40.22 40.22 0 0 1 12.92 5 44.93 44.93 0 0 1 8.08 6.4l.81.74 10.58-46.01zm-10.39 44.59a38 38 0 0 0 -5.41-4l6.76-1.92zm2.36-10.34-13 3.71a36.09 36.09 0 0 0 -3.53-1.26l3.2-3.94 14.67-4.17zm2.32-10.13-11.31 3.22 5.24-6.45 7.28-2.11zm2.23-9.78-3.89 1.12 5.06-6.23z"/><path d="m163.86 99-.81-.74a44.93 44.93 0 0 0 -8.16-6.37 40.22 40.22 0 0 0 -12.92-5 42.07 42.07 0 0 0 -5.79-.73q-1.35-.09-2.73-.09c-.49 0-1 0-1.46 0-.72 0-1.44.07-2.15.15l-7.07-11.12-1.71-2.69-1.7 2.59s-.4.61-1 1.61a38.8 38.8 0 0 0 -4.85 15.59 34.21 34.21 0 0 0 -3.51 2.8c-21.45 16.29-34.14 55.14-40.55 81.42-.34 1.37-.66 2.7-1 4-2.84 12.24-4.19 21-4.35 22.07l-.35 2.29h81.42l-.45-2.37c-6.17-32.48 1.89-52.34 4.39-57.48l49.65 14.47 8.11-21.08zm32.49 55.5-49.15-14.32-.18.29a27.48 27.48 0 0 1 -34-3.41 26.94 26.94 0 0 1 -5.62-7.79l-2.57 3.73a31.48 31.48 0 0 0 39.17 13.53c-3.33 8.28-8.41 26.6-3.63 54.23h-71.95c.64-3.72 6.32-28.9 7.41-32.84 6.64-24 17.82-54 34.69-68.26l.06.12 2-1.74c.39-.34.78-.68 1.18-1a19.78 19.78 0 0 0 4.28 9.87 21.55 21.55 0 0 0 2.83 2.93l2.6-3a3.48 3.48 0 0 1 -.35-.32 16.87 16.87 0 0 1 -2.73-3.08 16.59 16.59 0 0 1 -3-9 22.45 22.45 0 0 1 .32-4.73 34.15 34.15 0 0 1 3.4-9.71l4.44 7 2.3 3.61.69 1.09 2.33 3.66 2.74 4.32 3.39-2.21-3.65-5.74-1.05-1.66h1.17 1a39.21 39.21 0 0 1 7.85 1l.42.1.25.06a37.42 37.42 0 0 1 17.11 9.77l.12.12.07.07 41.86 38.24z"/><path d="m187.07 165.51v4h7.86l-15.81 15.6-10.62-12.37-17.83 17.32 2.79 2.87 14.78-14.36 10.63 12.41 19.97-19.72v9.56h4v-15.31z"/></g></svg>